<svg width="283" height="101" viewBox="0 0 283 101" fill="none" xmlns="http://www.w3.org/2000/svg">
<path d="M30.7413 44.848C30.7413 42.3 32.7693 40.272 35.3173 40.272C37.8133 40.272 39.8933 42.3 39.8933 44.848C39.8933 47.344 37.8133 49.372 35.3173 49.372C32.7693 49.372 30.7413 47.344 30.7413 44.848ZM30.7413 62.996C30.7413 60.448 32.7693 58.42 35.3173 58.42C37.8133 58.42 39.8933 60.448 39.8933 62.996C39.8933 65.492 37.8133 67.52 35.3173 67.52C32.7693 67.52 30.7413 65.492 30.7413 62.996ZM54.1759 55.56C54.1759 58.576 56.5159 61.28 59.6359 61.28C62.7559 61.28 65.0959 58.576 65.0959 55.56C65.0959 52.544 62.7559 49.84 59.6359 49.84C56.5159 49.84 54.1759 52.544 54.1759 55.56ZM54.1759 67H46.3759V28H54.1759V46.876C56.2039 44.38 59.0639 43.548 62.0279 43.548C68.5279 43.548 73.4159 49.216 73.4159 55.56C73.4159 61.904 68.5279 67.52 62.0279 67.52C59.0639 67.52 55.7359 66.584 54.1759 64.244V67ZM77.952 36.216C77.952 33.668 79.98 31.64 82.528 31.64C85.024 31.64 87.104 33.668 87.104 36.216C87.104 38.712 85.024 40.792 82.528 40.792C79.98 40.792 77.952 38.712 77.952 36.216ZM86.428 67H78.628V44.068H86.428V67ZM102.77 50.1V67H95.0223V50.1H90.8623V44.068H95.0223V35.332H102.77V44.068H106.93V50.1H102.77ZM132.287 51.036H124.643C124.383 48.956 122.459 48.384 120.951 48.384C119.443 48.384 117.831 49.164 117.831 50.516C117.831 53.74 132.651 50.464 132.651 60.136C132.651 65.544 128.023 67.52 121.367 67.52C114.555 67.52 109.407 64.972 108.991 58.472H116.739C116.739 61.904 119.807 62.112 121.523 62.112C123.291 62.112 124.799 61.436 124.799 60.188C124.799 55.352 109.979 59.148 109.979 50.828C109.979 46.148 113.567 43.548 121.159 43.548C127.191 43.548 131.611 45.784 132.287 51.036ZM145.125 55.56C145.125 58.576 147.465 61.28 150.585 61.28C153.705 61.28 156.045 58.576 156.045 55.56C156.045 52.544 153.705 49.84 150.585 49.84C147.465 49.84 145.125 52.544 145.125 55.56ZM145.125 80H137.325V44.068H145.125V46.876C147.153 44.38 150.013 43.548 152.977 43.548C159.477 43.548 164.365 49.216 164.365 55.56C164.365 61.904 159.477 67.52 152.977 67.52C150.013 67.52 146.685 66.584 145.125 64.244V80ZM187.257 55.56C187.257 52.544 184.917 49.84 181.797 49.84C178.677 49.84 176.337 52.544 176.337 55.56C176.337 58.576 178.677 61.28 181.797 61.28C184.917 61.28 187.257 58.576 187.257 55.56ZM195.057 44.12V67H187.257V64.244C185.697 66.584 182.317 67.52 179.405 67.52C172.905 67.52 168.017 61.904 168.017 55.56C168.017 49.216 172.905 43.548 179.405 43.548C182.317 43.548 185.229 44.38 187.257 46.876V44.12H195.057ZM213.009 49.632C209.473 49.632 208.329 53.012 208.329 55.612C208.329 58.264 209.369 61.592 213.009 61.592C215.401 61.592 217.273 60.552 217.533 58.472H225.125C224.345 63.568 219.717 67.52 212.749 67.52C204.793 67.52 200.009 62.112 200.009 55.56C200.009 49.008 205.105 43.548 212.749 43.548C220.185 43.548 224.917 47.968 225.281 53.272H217.533C217.429 51.036 215.713 49.632 213.009 49.632ZM237.073 52.804H247.317C247.317 52.804 246.953 48.54 242.221 48.54C237.333 48.54 237.073 52.804 237.073 52.804ZM254.805 55.04C254.805 55.508 254.753 56.028 254.753 56.496H236.969C236.969 59.148 238.841 61.956 241.909 61.956C244.665 61.956 246.381 60.136 246.433 58.472H254.389C253.037 64.504 248.149 67.52 242.065 67.52C234.161 67.52 228.701 62.84 228.701 55.56C228.701 48.384 234.369 43.548 242.065 43.548C249.033 43.548 254.805 47.708 254.805 55.04Z" fill="white"/>
<path d="M103.095 78.3C103.095 79.188 102.795 79.884 102.219 80.388C101.679 80.868 100.959 81.108 100.059 81.108C99.147 81.108 98.415 80.868 97.875 80.388C97.299 79.884 97.011 79.188 97.011 78.3V72.84H97.851V78.42C97.851 79.044 98.067 79.512 98.511 79.836C98.895 80.124 99.411 80.268 100.059 80.268C101.055 80.268 101.727 79.932 102.075 79.26C102.195 79.032 102.255 78.756 102.255 78.42V72.84H103.095V78.3ZM105.554 81H104.714V72.84H105.554V81ZM112.523 72L107.867 83.412H106.967L111.623 72H112.523ZM119.712 78.3C119.712 79.188 119.412 79.884 118.836 80.388C118.296 80.868 117.576 81.108 116.676 81.108C115.764 81.108 115.032 80.868 114.492 80.388C113.916 79.884 113.628 79.188 113.628 78.3V72.84H114.468V78.42C114.468 79.044 114.684 79.512 115.128 79.836C115.512 80.124 116.028 80.268 116.676 80.268C117.672 80.268 118.344 79.932 118.692 79.26C118.812 79.032 118.872 78.756 118.872 78.42V72.84H119.712V78.3ZM126.42 81L124.068 77.52L121.716 81H120.684L123.552 76.932L120.672 72.84H121.716L124.068 76.32L126.42 72.84H127.452L124.584 76.92L127.452 81H126.42Z" fill="white"/>
<path d="M40.6405 8.24H32.6245V14.048H40.4005V15.632H32.6245V23H30.9445V6.68H40.6405V8.24ZM48.3451 14.624C47.9371 14.288 47.5291 14.096 47.0971 14.096C46.6651 14.096 46.2811 14.24 45.9691 14.48C45.6571 14.72 45.3931 15.032 45.2011 15.392C44.7931 16.088 44.6011 16.856 44.6011 17.72V23H42.9211V12.44H44.6011V14.624L44.6731 14.192C45.2251 12.896 46.0891 12.224 47.2891 12.224C47.6491 12.224 48.0091 12.296 48.3451 12.44V14.624ZM59.0142 17.672C59.0142 16.616 58.6302 15.728 57.8862 14.96C57.1182 14.216 56.2302 13.832 55.1742 13.832C54.1182 13.832 53.2062 14.216 52.4622 14.96C51.6942 15.728 51.3342 16.616 51.3342 17.672C51.3342 18.728 51.6942 19.616 52.4622 20.36C53.2062 21.128 54.1182 21.488 55.1742 21.488C56.2302 21.488 57.1182 21.128 57.8862 20.36C58.6302 19.616 59.0142 18.728 59.0142 17.672ZM60.6942 17.672C60.6942 19.208 60.1422 20.504 59.0622 21.56C57.9822 22.64 56.6622 23.168 55.1742 23.168C53.6622 23.168 52.3422 22.64 51.2622 21.56C50.1822 20.504 49.6542 19.208 49.6542 17.672C49.6542 16.16 50.1822 14.864 51.2622 13.784C52.3422 12.704 53.6382 12.152 55.1742 12.152C56.6862 12.152 57.9822 12.704 59.0622 13.784C60.1422 14.864 60.6942 16.16 60.6942 17.672ZM70.8655 23V16.424C70.8655 15.728 70.6975 15.128 70.3855 14.648C70.0735 14.168 69.5695 13.928 68.8495 13.928C68.1295 13.928 67.5295 14.048 67.0975 14.336C66.6415 14.6 66.2815 14.96 65.9935 15.392C65.4895 16.184 65.2495 17.24 65.2495 18.584V23H63.5695V12.44H65.2495V14.264C65.5855 13.664 66.0415 13.184 66.5935 12.824C67.1695 12.44 67.8175 12.224 68.5855 12.224C69.3295 12.224 69.9295 12.344 70.4095 12.56C70.8655 12.776 71.2495 13.064 71.5855 13.448C72.2095 14.192 72.5455 15.176 72.5455 16.4V23H70.8655ZM74.4605 14V12.44H77.1005V8.336H78.7805V12.44H81.3965V14H78.7805V23H77.1005V14H74.4605ZM93.9989 17.48V18.392H84.7109C84.8549 19.28 85.3109 20.024 86.0309 20.624C86.7509 21.2 87.5669 21.512 88.4789 21.512C89.0789 21.512 89.6549 21.368 90.2069 21.08C90.7589 20.792 91.2149 20.408 91.5989 19.904H93.5189C93.0629 20.912 92.3909 21.728 91.4789 22.304C90.5669 22.88 89.6549 23.168 88.7189 23.168C87.7829 23.168 86.9909 23.024 86.3189 22.736C85.6469 22.448 85.0709 22.064 84.5669 21.56C83.4869 20.504 82.9589 19.208 82.9589 17.672C82.9589 16.16 83.4869 14.864 84.5669 13.784C85.6469 12.704 86.9429 12.152 88.4789 12.152C89.9429 12.152 91.2389 12.68 92.3189 13.712C93.4229 14.792 93.9989 16.04 93.9989 17.48ZM92.2229 16.952C92.0069 16.04 91.5749 15.296 90.8549 14.696C90.1589 14.12 89.3669 13.832 88.4789 13.832C87.0869 13.832 86.0069 14.456 85.2389 15.704C84.9989 16.088 84.8309 16.496 84.7349 16.952H92.2229ZM104.053 23V16.424C104.053 15.728 103.885 15.128 103.573 14.648C103.261 14.168 102.757 13.928 102.037 13.928C101.317 13.928 100.717 14.048 100.285 14.336C99.829 14.6 99.469 14.96 99.181 15.392C98.677 16.184 98.437 17.24 98.437 18.584V23H96.757V12.44H98.437V14.264C98.773 13.664 99.229 13.184 99.781 12.824C100.357 12.44 101.005 12.224 101.773 12.224C102.517 12.224 103.117 12.344 103.597 12.56C104.053 12.776 104.437 13.064 104.773 13.448C105.397 14.192 105.733 15.176 105.733 16.4V23H104.053ZM117.368 17.72C117.368 16.712 117.008 15.8 116.288 15.032C115.568 14.264 114.68 13.88 113.648 13.88C112.592 13.88 111.704 14.264 110.984 15.032C110.264 15.8 109.928 16.712 109.928 17.72C109.928 18.752 110.264 19.664 110.984 20.408C111.704 21.176 112.592 21.56 113.648 21.56C114.68 21.56 115.568 21.176 116.288 20.408C117.008 19.664 117.368 18.752 117.368 17.72ZM119.048 23H117.368V21.2C117.272 21.344 117.152 21.464 117.056 21.56C116.048 22.688 114.824 23.24 113.384 23.24C111.92 23.24 110.696 22.688 109.688 21.56C108.728 20.48 108.248 19.208 108.248 17.72C108.248 16.256 108.728 14.984 109.688 13.88C110.696 12.776 111.92 12.2 113.384 12.2C114.824 12.2 116.048 12.776 117.056 13.88C117.152 14 117.272 14.12 117.368 14.264V5H119.048V23Z" fill="white"/>
<path d="M214.783 34.24C214.783 34.94 214.643 35.57 214.391 36.158C214.139 36.746 213.789 37.236 213.355 37.656C212.907 38.076 212.389 38.412 211.801 38.65C211.199 38.888 210.555 39 209.883 39H207.391V29.48H209.883C210.555 29.48 211.199 29.606 211.801 29.844C212.389 30.082 212.907 30.404 213.355 30.824C213.789 31.244 214.139 31.748 214.391 32.336C214.643 32.924 214.783 33.554 214.783 34.24ZM213.831 34.24C213.831 33.162 213.439 32.252 212.683 31.524C211.927 30.824 211.003 30.46 209.911 30.46H208.371V38.02H209.911C211.003 38.02 211.927 37.67 212.683 36.956C213.439 36.242 213.831 35.332 213.831 34.24ZM222.489 35.78V36.312H217.071C217.155 36.83 217.421 37.264 217.841 37.614C218.261 37.95 218.737 38.132 219.269 38.132C219.619 38.132 219.955 38.048 220.277 37.88C220.599 37.712 220.865 37.488 221.089 37.194H222.209C221.943 37.782 221.551 38.258 221.019 38.594C220.487 38.93 219.955 39.098 219.409 39.098C218.863 39.098 218.401 39.014 218.009 38.846C217.617 38.678 217.281 38.454 216.987 38.16C216.357 37.544 216.049 36.788 216.049 35.892C216.049 35.01 216.357 34.254 216.987 33.624C217.617 32.994 218.373 32.672 219.269 32.672C220.123 32.672 220.879 32.98 221.509 33.582C222.153 34.212 222.489 34.94 222.489 35.78ZM221.453 35.472C221.327 34.94 221.075 34.506 220.655 34.156C220.249 33.82 219.787 33.652 219.269 33.652C218.457 33.652 217.827 34.016 217.379 34.744C217.239 34.968 217.141 35.206 217.085 35.472H221.453ZM226.03 39.588L223.188 32.84H224.252L226.03 37.418L227.794 32.84H228.858L226.03 39.588ZM238.431 34.212C238.431 33.148 238.039 32.224 237.283 31.454C236.513 30.698 235.589 30.306 234.511 30.306C233.433 30.306 232.509 30.698 231.739 31.454C230.983 32.224 230.591 33.148 230.591 34.212C230.591 35.304 230.983 36.228 231.739 36.984C232.509 37.754 233.433 38.132 234.511 38.132C235.589 38.132 236.513 37.754 237.283 36.984C238.039 36.228 238.431 35.304 238.431 34.212ZM239.411 34.212C239.411 34.884 239.271 35.528 239.019 36.116C238.767 36.718 238.417 37.236 237.969 37.684C237.521 38.132 237.003 38.482 236.401 38.734C235.813 38.986 235.169 39.126 234.497 39.126C233.825 39.126 233.195 38.986 232.607 38.734C232.019 38.482 231.501 38.132 231.053 37.684C230.605 37.236 230.255 36.718 230.003 36.116C229.751 35.528 229.611 34.884 229.611 34.212C229.611 33.54 229.751 32.91 230.003 32.308C230.255 31.72 230.605 31.202 231.053 30.754C231.501 30.32 232.019 29.97 232.607 29.718C233.195 29.466 233.825 29.34 234.497 29.34C235.169 29.34 235.813 29.466 236.401 29.718C237.003 29.97 237.521 30.32 237.969 30.754C238.417 31.202 238.767 31.72 239.019 32.308C239.271 32.91 239.411 33.54 239.411 34.212ZM242.072 42.5L241.092 42.514V32.854H242.072V33.904C242.114 33.82 242.184 33.75 242.24 33.694C242.828 33.036 243.542 32.714 244.396 32.714C245.236 32.714 245.95 33.036 246.538 33.694C247.098 34.324 247.392 35.066 247.392 35.934C247.392 36.788 247.098 37.53 246.538 38.16C245.95 38.818 245.236 39.14 244.396 39.14C243.542 39.14 242.828 38.818 242.24 38.16C242.184 38.104 242.114 38.034 242.072 37.95V42.5ZM246.412 35.934C246.412 35.332 246.202 34.8 245.782 34.366C245.362 33.918 244.844 33.694 244.242 33.694C243.626 33.694 243.108 33.918 242.688 34.366C242.268 34.8 242.072 35.332 242.072 35.934C242.072 36.522 242.268 37.054 242.688 37.502C243.108 37.95 243.626 38.174 244.242 38.174C244.844 38.174 245.362 37.95 245.782 37.502C246.202 37.054 246.412 36.522 246.412 35.934ZM249.958 38.132C250.21 38.3 250.532 38.384 250.91 38.384C251.806 38.384 252.254 38.048 252.254 37.376C252.254 36.984 251.932 36.676 251.302 36.466C251.022 36.382 250.728 36.298 250.42 36.228C250.112 36.144 249.818 36.046 249.538 35.92C249.23 35.78 248.992 35.598 248.824 35.36C248.67 35.136 248.586 34.87 248.586 34.576C248.586 33.96 248.81 33.498 249.23 33.176C249.664 32.868 250.182 32.714 250.77 32.714C251.372 32.714 251.862 32.826 252.268 33.078C252.66 33.316 252.926 33.75 253.052 34.38H252.002C251.904 34.03 251.736 33.806 251.526 33.694C251.316 33.582 251.05 33.526 250.742 33.526C250.448 33.526 250.182 33.582 249.958 33.722C249.734 33.848 249.622 34.058 249.622 34.338C249.622 34.618 249.72 34.814 249.902 34.94C250.084 35.066 250.308 35.178 250.588 35.262C250.854 35.346 251.148 35.43 251.456 35.5C251.778 35.57 252.072 35.668 252.338 35.794C252.982 36.102 253.29 36.578 253.29 37.25C253.29 37.908 253.052 38.398 252.576 38.72C252.338 38.874 252.086 38.986 251.792 39.07C251.498 39.154 251.19 39.182 250.854 39.182C249.426 39.182 248.614 38.552 248.404 37.278H249.44C249.538 37.684 249.72 37.964 249.958 38.132Z" fill="white"/>
<path d="M60.945 78.2C58.875 77.72 57.825 76.82 57.825 75.515C57.825 74.555 58.17 73.85 58.83 73.37C59.505 72.89 60.3 72.65 61.2 72.65C63.18 72.65 64.365 73.4 64.74 74.87H63.6C63.39 74 62.595 73.55 61.2 73.55C60.21 73.55 59.52 73.85 59.13 74.435C58.98 74.645 58.92 74.93 58.92 75.26C58.905 75.89 59.25 76.37 59.94 76.715C60.255 76.88 60.93 77.105 61.98 77.375C63.015 77.645 63.765 77.945 64.23 78.275C64.89 78.725 65.22 79.37 65.22 80.21C65.22 81.23 64.8 82.01 63.99 82.535C63.315 82.985 62.475 83.195 61.47 83.195C59.22 83.195 57.915 82.34 57.555 80.615H58.785C58.98 81.695 59.88 82.235 61.47 82.235C62.61 82.235 63.42 81.92 63.87 81.29C64.05 81.05 64.14 80.705 64.14 80.285C64.14 79.865 63.975 79.52 63.645 79.25C63.165 78.86 62.265 78.515 60.945 78.2ZM67.5783 86.75H66.3033L68.5233 81.92L65.7633 76.4H66.9633L69.0783 80.825L70.9683 76.4H72.1383L67.5783 86.75ZM74.0554 82.07C74.3254 82.25 74.6704 82.34 75.0754 82.34C76.0354 82.34 76.5154 81.98 76.5154 81.26C76.5154 80.84 76.1704 80.51 75.4954 80.285C75.1954 80.195 74.8804 80.105 74.5504 80.03C74.2204 79.94 73.9054 79.835 73.6054 79.7C73.2754 79.55 73.0204 79.355 72.8404 79.1C72.6754 78.86 72.5854 78.575 72.5854 78.26C72.5854 77.6 72.8254 77.105 73.2754 76.76C73.7404 76.43 74.2954 76.265 74.9254 76.265C75.5704 76.265 76.0954 76.385 76.5304 76.655C76.9504 76.91 77.2354 77.375 77.3704 78.05H76.2454C76.1404 77.675 75.9604 77.435 75.7354 77.315C75.5104 77.195 75.2254 77.135 74.8954 77.135C74.5804 77.135 74.2954 77.195 74.0554 77.345C73.8154 77.48 73.6954 77.705 73.6954 78.005C73.6954 78.305 73.8004 78.515 73.9954 78.65C74.1904 78.785 74.4304 78.905 74.7304 78.995C75.0154 79.085 75.3304 79.175 75.6604 79.25C76.0054 79.325 76.3204 79.43 76.6054 79.565C77.2954 79.895 77.6254 80.405 77.6254 81.125C77.6254 81.83 77.3704 82.355 76.8604 82.7C76.6054 82.865 76.3354 82.985 76.0204 83.075C75.7054 83.165 75.3754 83.195 75.0154 83.195C73.4854 83.195 72.6154 82.52 72.3904 81.155H73.5004C73.6054 81.59 73.8004 81.89 74.0554 82.07ZM59.035 91.25H61.752L60.399 87.807L59.035 91.25ZM63.677 94H62.841L62.038 91.965H58.749L57.946 94H57.11L60.399 86.003L63.677 94ZM67.1001 90.161C66.9131 90.007 66.7261 89.919 66.5281 89.919C66.3301 89.919 66.1541 89.985 66.0111 90.095C65.8681 90.205 65.7471 90.348 65.6591 90.513C65.4721 90.832 65.3841 91.184 65.3841 91.58V94H64.6141V89.16H65.3841V90.161L65.4171 89.963C65.6701 89.369 66.0661 89.061 66.6161 89.061C66.7811 89.061 66.9461 89.094 67.1001 89.16V90.161ZM72.5511 90.898L71.7151 90.909C71.5831 90.601 71.3741 90.348 71.0991 90.161C70.8131 89.963 70.5381 89.875 70.2521 89.875C69.9661 89.875 69.7131 89.919 69.5151 90.007C69.3061 90.095 69.1301 90.227 68.9761 90.381C68.6461 90.722 68.4811 91.129 68.4811 91.591C68.4811 92.053 68.6461 92.46 68.9761 92.801C69.3061 93.142 69.7021 93.318 70.1751 93.318C70.4831 93.318 70.7581 93.23 71.0221 93.076C71.2861 92.911 71.4841 92.691 71.6381 92.416H72.5071C72.2321 93.197 71.7041 93.714 70.9341 93.989C70.6921 94.077 70.4171 94.11 70.1091 94.11C69.8011 94.11 69.4931 94.044 69.1961 93.912C68.8881 93.78 68.6351 93.593 68.4151 93.362C67.9311 92.856 67.7001 92.273 67.7001 91.58C67.7001 90.898 67.9311 90.304 68.4151 89.809C68.8881 89.314 69.4821 89.061 70.1751 89.061C70.7251 89.061 71.2201 89.237 71.6711 89.578C72.1001 89.919 72.3971 90.359 72.5511 90.898ZM74.5364 94H73.7664V85.75H74.5364V89.996C74.6904 89.721 74.8994 89.501 75.1524 89.336C75.4164 89.16 75.7134 89.061 76.0654 89.061C76.4064 89.061 76.6814 89.116 76.9014 89.215C77.1104 89.314 77.2864 89.446 77.4404 89.622C77.7264 89.963 77.8804 90.414 77.8804 90.975V94H77.1104V90.975C77.1104 90.667 77.0334 90.392 76.8904 90.172C76.7474 89.952 76.5164 89.831 76.1864 89.831C75.8564 89.831 75.5814 89.886 75.3834 89.996C75.1744 90.106 75.0094 90.249 74.8774 90.447C74.6464 90.799 74.5364 91.305 74.5364 91.976V94ZM80.1441 87.488C80.2321 87.587 80.2871 87.708 80.2871 87.84C80.2871 87.972 80.2321 88.093 80.1441 88.181C80.0451 88.28 79.9241 88.324 79.7921 88.324C79.6601 88.324 79.5391 88.28 79.4511 88.181C79.3521 88.093 79.3081 87.972 79.3081 87.84C79.3081 87.708 79.3521 87.587 79.4511 87.488C79.5391 87.4 79.6601 87.345 79.7921 87.345C79.9241 87.345 80.0451 87.4 80.1441 87.488ZM80.1881 94H79.4181V89.16H80.1881V94ZM81.2718 89.875V89.16H82.4818V87.279H83.2518V89.16H84.4508V89.875H83.2518V94H82.4818V89.875H81.2718ZM90.2269 91.47V91.888H85.9699C86.0359 92.295 86.2449 92.636 86.5749 92.911C86.9049 93.175 87.2789 93.318 87.6969 93.318C87.9719 93.318 88.2359 93.252 88.4889 93.12C88.7419 92.988 88.9509 92.812 89.1269 92.581H90.0069C89.7979 93.043 89.4899 93.417 89.0719 93.681C88.6539 93.945 88.2359 94.077 87.8069 94.077C87.3779 94.077 87.0149 94.011 86.7069 93.879C86.3989 93.747 86.1349 93.571 85.9039 93.34C85.4089 92.856 85.1669 92.262 85.1669 91.558C85.1669 90.865 85.4089 90.271 85.9039 89.776C86.3989 89.281 86.9929 89.028 87.6969 89.028C88.3679 89.028 88.9619 89.27 89.4569 89.743C89.9629 90.238 90.2269 90.81 90.2269 91.47ZM89.4129 91.228C89.3139 90.81 89.1159 90.469 88.7859 90.194C88.4669 89.93 88.1039 89.798 87.6969 89.798C87.0589 89.798 86.5639 90.084 86.2119 90.656C86.1019 90.832 86.0249 91.019 85.9809 91.228H89.4129ZM96.012 90.898L95.176 90.909C95.044 90.601 94.835 90.348 94.56 90.161C94.274 89.963 93.999 89.875 93.713 89.875C93.427 89.875 93.174 89.919 92.976 90.007C92.767 90.095 92.591 90.227 92.437 90.381C92.107 90.722 91.942 91.129 91.942 91.591C91.942 92.053 92.107 92.46 92.437 92.801C92.767 93.142 93.163 93.318 93.636 93.318C93.944 93.318 94.219 93.23 94.483 93.076C94.747 92.911 94.945 92.691 95.099 92.416H95.968C95.693 93.197 95.165 93.714 94.395 93.989C94.153 94.077 93.878 94.11 93.57 94.11C93.262 94.11 92.954 94.044 92.657 93.912C92.349 93.78 92.096 93.593 91.876 93.362C91.392 92.856 91.161 92.273 91.161 91.58C91.161 90.898 91.392 90.304 91.876 89.809C92.349 89.314 92.943 89.061 93.636 89.061C94.186 89.061 94.681 89.237 95.132 89.578C95.561 89.919 95.858 90.359 96.012 90.898ZM96.6223 89.875V89.16H97.8323V87.279H98.6023V89.16H99.8013V89.875H98.6023V94H97.8323V89.875H96.6223ZM104.191 93.175C103.828 93.791 103.289 94.11 102.574 94.11C102.024 94.11 101.606 93.923 101.298 93.571C100.99 93.208 100.847 92.757 100.847 92.196V89.171H101.617V92.196C101.617 92.504 101.683 92.779 101.826 92.999C101.969 93.219 102.211 93.34 102.541 93.34C103.135 93.34 103.564 93.142 103.806 92.768C104.059 92.383 104.191 91.866 104.191 91.184V89.16H104.961V94H104.191V93.175ZM108.93 90.161C108.743 90.007 108.556 89.919 108.358 89.919C108.16 89.919 107.984 89.985 107.841 90.095C107.698 90.205 107.577 90.348 107.489 90.513C107.302 90.832 107.214 91.184 107.214 91.58V94H106.444V89.16H107.214V90.161L107.247 89.963C107.5 89.369 107.896 89.061 108.446 89.061C108.611 89.061 108.776 89.094 108.93 89.16V90.161ZM114.59 91.47V91.888H110.333C110.399 92.295 110.608 92.636 110.938 92.911C111.268 93.175 111.642 93.318 112.06 93.318C112.335 93.318 112.599 93.252 112.852 93.12C113.105 92.988 113.314 92.812 113.49 92.581H114.37C114.161 93.043 113.853 93.417 113.435 93.681C113.017 93.945 112.599 94.077 112.17 94.077C111.741 94.077 111.378 94.011 111.07 93.879C110.762 93.747 110.498 93.571 110.267 93.34C109.772 92.856 109.53 92.262 109.53 91.558C109.53 90.865 109.772 90.271 110.267 89.776C110.762 89.281 111.356 89.028 112.06 89.028C112.731 89.028 113.325 89.27 113.82 89.743C114.326 90.238 114.59 90.81 114.59 91.47ZM113.776 91.228C113.677 90.81 113.479 90.469 113.149 90.194C112.83 89.93 112.467 89.798 112.06 89.798C111.422 89.798 110.927 90.084 110.575 90.656C110.465 90.832 110.388 91.019 110.344 91.228H113.776Z" fill="white"/>
<path d="M133.336 18.6C130.576 17.96 129.176 16.76 129.176 15.02C129.176 13.74 129.636 12.8 130.516 12.16C131.416 11.52 132.476 11.2 133.676 11.2C136.316 11.2 137.896 12.2 138.396 14.16H136.876C136.596 13 135.536 12.4 133.676 12.4C132.356 12.4 131.436 12.8 130.916 13.58C130.716 13.86 130.636 14.24 130.636 14.68C130.616 15.52 131.076 16.16 131.996 16.62C132.416 16.84 133.316 17.14 134.716 17.5C136.096 17.86 137.096 18.26 137.716 18.7C138.596 19.3 139.036 20.16 139.036 21.28C139.036 22.64 138.476 23.68 137.396 24.38C136.496 24.98 135.376 25.26 134.036 25.26C131.036 25.26 129.296 24.12 128.816 21.82H130.456C130.716 23.26 131.916 23.98 134.036 23.98C135.556 23.98 136.636 23.56 137.236 22.72C137.476 22.4 137.596 21.94 137.596 21.38C137.596 20.82 137.376 20.36 136.936 20C136.296 19.48 135.096 19.02 133.336 18.6ZM149.661 20.4V21.16H141.921C142.041 21.9 142.421 22.52 143.021 23.02C143.621 23.5 144.301 23.76 145.061 23.76C145.561 23.76 146.041 23.64 146.501 23.4C146.961 23.16 147.341 22.84 147.661 22.42H149.261C148.881 23.26 148.321 23.94 147.561 24.42C146.801 24.9 146.041 25.14 145.261 25.14C144.481 25.14 143.821 25.02 143.261 24.78C142.701 24.54 142.221 24.22 141.801 23.8C140.901 22.92 140.461 21.84 140.461 20.56C140.461 19.3 140.901 18.22 141.801 17.32C142.701 16.42 143.781 15.96 145.061 15.96C146.281 15.96 147.361 16.4 148.261 17.26C149.181 18.16 149.661 19.2 149.661 20.4ZM148.181 19.96C148.001 19.2 147.641 18.58 147.041 18.08C146.461 17.6 145.801 17.36 145.061 17.36C143.901 17.36 143.001 17.88 142.361 18.92C142.161 19.24 142.021 19.58 141.941 19.96H148.181ZM160.179 19.36L158.659 19.38C158.419 18.82 158.039 18.36 157.539 18.02C157.019 17.66 156.519 17.5 155.999 17.5C155.479 17.5 155.019 17.58 154.659 17.74C154.279 17.9 153.959 18.14 153.679 18.42C153.079 19.04 152.779 19.78 152.779 20.62C152.779 21.46 153.079 22.2 153.679 22.82C154.279 23.44 154.999 23.76 155.859 23.76C156.419 23.76 156.919 23.6 157.399 23.32C157.879 23.02 158.239 22.62 158.519 22.12H160.099C159.599 23.54 158.639 24.48 157.239 24.98C156.799 25.14 156.299 25.2 155.739 25.2C155.179 25.2 154.619 25.08 154.079 24.84C153.519 24.6 153.059 24.26 152.659 23.84C151.779 22.92 151.359 21.86 151.359 20.6C151.359 19.36 151.779 18.28 152.659 17.38C153.519 16.48 154.599 16.02 155.859 16.02C156.859 16.02 157.759 16.34 158.579 16.96C159.359 17.58 159.899 18.38 160.179 19.36ZM168.469 23.5C167.809 24.62 166.829 25.2 165.529 25.2C164.529 25.2 163.769 24.86 163.209 24.22C162.649 23.56 162.389 22.74 162.389 21.72V16.22H163.789V21.72C163.789 22.28 163.909 22.78 164.169 23.18C164.429 23.58 164.869 23.8 165.469 23.8C166.549 23.8 167.329 23.44 167.769 22.76C168.229 22.06 168.469 21.12 168.469 19.88V16.2H169.869V25H168.469V23.5ZM177.084 18.02C176.744 17.74 176.404 17.58 176.044 17.58C175.684 17.58 175.364 17.7 175.104 17.9C174.844 18.1 174.624 18.36 174.464 18.66C174.124 19.24 173.964 19.88 173.964 20.6V25H172.564V16.2H173.964V18.02L174.024 17.66C174.484 16.58 175.204 16.02 176.204 16.02C176.504 16.02 176.804 16.08 177.084 16.2V18.02ZM180.195 13.16C180.355 13.34 180.455 13.56 180.455 13.8C180.455 14.04 180.355 14.26 180.195 14.42C180.015 14.6 179.795 14.68 179.555 14.68C179.315 14.68 179.095 14.6 178.935 14.42C178.755 14.26 178.675 14.04 178.675 13.8C178.675 13.56 178.755 13.34 178.935 13.16C179.095 13 179.315 12.9 179.555 12.9C179.795 12.9 180.015 13 180.195 13.16ZM180.275 25H178.875V16.2H180.275V25ZM182.246 17.5V16.2H184.446V12.78H185.846V16.2H188.026V17.5H185.846V25H184.446V17.5H182.246ZM191.048 30H189.348L192.308 23.56L188.628 16.2H190.228L193.048 22.1L195.568 16.2H197.128L191.048 30Z" fill="white"/>
<path d="M40.6295 77.24C40.6295 77.94 40.4895 78.57 40.2375 79.158C39.9855 79.746 39.6355 80.236 39.2015 80.656C38.7535 81.076 38.2355 81.412 37.6475 81.65C37.0455 81.888 36.4015 82 35.7295 82H33.2375V72.48H35.7295C36.4015 72.48 37.0455 72.606 37.6475 72.844C38.2355 73.082 38.7535 73.404 39.2015 73.824C39.6355 74.244 39.9855 74.748 40.2375 75.336C40.4895 75.924 40.6295 76.554 40.6295 77.24ZM39.6775 77.24C39.6775 76.162 39.2855 75.252 38.5295 74.524C37.7735 73.824 36.8495 73.46 35.7575 73.46H34.2175V81.02H35.7575C36.8495 81.02 37.7735 80.67 38.5295 79.956C39.2855 79.242 39.6775 78.332 39.6775 77.24ZM48.5316 79.354C48.5316 79.746 48.4336 80.11 48.2516 80.474C48.0836 80.824 47.8456 81.118 47.5376 81.342C46.9636 81.79 46.1936 82.014 45.2276 82.014H42.3156V72.494H44.8916C46.2776 72.494 47.1876 72.914 47.6076 73.782C47.7476 74.09 47.8316 74.398 47.8316 74.72C47.8316 75.028 47.8036 75.28 47.7476 75.462C47.6916 75.644 47.6216 75.826 47.5236 75.994C47.3136 76.358 47.0336 76.61 46.7116 76.75C47.2576 76.904 47.7056 77.212 48.0416 77.66C48.3636 78.108 48.5316 78.682 48.5316 79.354ZM46.8376 74.874C46.8376 73.908 46.1936 73.432 44.8776 73.432H43.2816V76.4H45.1576C45.6616 76.4 46.0676 76.274 46.3756 76.022C46.6836 75.77 46.8376 75.378 46.8376 74.874ZM47.5376 79.172C47.5376 78.892 47.4956 78.64 47.3836 78.43C47.2716 78.206 47.1316 78.024 46.9636 77.87C46.5856 77.534 46.1516 77.38 45.6476 77.38H43.2816V81.076H45.4936C46.0956 81.076 46.5856 80.894 46.9636 80.558C47.3556 80.194 47.5376 79.732 47.5376 79.172ZM40.826 93L39.342 86.224L36.486 93.56L33.616 86.224L32.146 93H31.138L33.364 82.85L36.486 90.998L39.608 82.85L41.82 93H40.826ZM45.6449 88.52C43.7129 88.072 42.7329 87.232 42.7329 86.014C42.7329 85.118 43.0549 84.46 43.6709 84.012C44.3009 83.564 45.0429 83.34 45.8829 83.34C47.7309 83.34 48.8369 84.04 49.1869 85.412H48.1229C47.9269 84.6 47.1849 84.18 45.8829 84.18C44.9589 84.18 44.3149 84.46 43.9509 85.006C43.8109 85.202 43.7549 85.468 43.7549 85.776C43.7409 86.364 44.0629 86.812 44.7069 87.134C45.0009 87.288 45.6309 87.498 46.6109 87.75C47.5769 88.002 48.2769 88.282 48.7109 88.59C49.3269 89.01 49.6349 89.612 49.6349 90.396C49.6349 91.348 49.2429 92.076 48.4869 92.566C47.8569 92.986 47.0729 93.182 46.1349 93.182C44.0349 93.182 42.8169 92.384 42.4809 90.774H43.6289C43.8109 91.782 44.6509 92.286 46.1349 92.286C47.1989 92.286 47.9549 91.992 48.3749 91.404C48.5429 91.18 48.6269 90.858 48.6269 90.466C48.6269 90.074 48.4729 89.752 48.1649 89.5C47.7169 89.136 46.8769 88.814 45.6449 88.52Z" fill="white"/>
<path d="M115.246 36.088C114.882 37.012 114.308 37.74 113.51 38.3C112.684 38.86 111.802 39.14 110.836 39.14C109.506 39.14 108.386 38.664 107.462 37.684C106.538 36.732 106.09 35.598 106.09 34.254C106.09 33.596 106.202 32.966 106.454 32.378C106.692 31.79 107.028 31.258 107.462 30.81C108.386 29.844 109.506 29.354 110.836 29.354C111.802 29.354 112.684 29.634 113.496 30.194C114.294 30.754 114.868 31.482 115.232 32.378H114.154C113.636 31.44 112.866 30.824 111.844 30.516C111.508 30.418 111.13 30.362 110.696 30.362C110.248 30.362 109.8 30.474 109.352 30.684C108.89 30.894 108.484 31.174 108.148 31.524C107.42 32.28 107.07 33.19 107.07 34.254C107.07 35.318 107.42 36.228 108.148 36.97C108.89 37.754 109.786 38.132 110.836 38.132C111.536 38.132 112.194 37.95 112.782 37.572C113.37 37.208 113.832 36.704 114.168 36.088H115.246ZM117.689 39H116.709V28.5H117.689V39ZM124.825 35.892C124.825 35.276 124.601 34.758 124.167 34.31C123.719 33.876 123.201 33.652 122.585 33.652C121.969 33.652 121.437 33.876 121.003 34.31C120.555 34.758 120.345 35.276 120.345 35.892C120.345 36.508 120.555 37.026 121.003 37.46C121.437 37.908 121.969 38.118 122.585 38.118C123.201 38.118 123.719 37.908 124.167 37.46C124.601 37.026 124.825 36.508 124.825 35.892ZM125.805 35.892C125.805 36.788 125.483 37.544 124.853 38.16C124.223 38.79 123.453 39.098 122.585 39.098C121.703 39.098 120.933 38.79 120.303 38.16C119.673 37.544 119.365 36.788 119.365 35.892C119.365 35.01 119.673 34.254 120.303 33.624C120.933 32.994 121.689 32.672 122.585 32.672C123.467 32.672 124.223 32.994 124.853 33.624C125.483 34.254 125.805 35.01 125.805 35.892ZM131.739 37.95C131.277 38.734 130.591 39.14 129.681 39.14C128.981 39.14 128.449 38.902 128.057 38.454C127.665 37.992 127.483 37.418 127.483 36.704V32.854H128.463V36.704C128.463 37.096 128.547 37.446 128.729 37.726C128.911 38.006 129.219 38.16 129.639 38.16C130.395 38.16 130.941 37.908 131.249 37.432C131.571 36.942 131.739 36.284 131.739 35.416V32.84H132.719V39H131.739V37.95ZM139.506 35.92C139.506 35.332 139.296 34.8 138.876 34.352C138.456 33.904 137.938 33.68 137.336 33.68C136.72 33.68 136.202 33.904 135.782 34.352C135.362 34.8 135.166 35.332 135.166 35.92C135.166 36.522 135.362 37.054 135.782 37.488C136.202 37.936 136.72 38.16 137.336 38.16C137.938 38.16 138.456 37.936 138.876 37.488C139.296 37.054 139.506 36.522 139.506 35.92ZM140.486 39H139.506V37.95C139.45 38.034 139.38 38.104 139.324 38.16C138.736 38.818 138.022 39.14 137.182 39.14C136.328 39.14 135.614 38.818 135.026 38.16C134.466 37.53 134.186 36.788 134.186 35.92C134.186 35.066 134.466 34.324 135.026 33.68C135.614 33.036 136.328 32.7 137.182 32.7C138.022 32.7 138.736 33.036 139.324 33.68C139.38 33.75 139.45 33.82 139.506 33.904V28.5H140.486V39Z" fill="white"/>
<path d="M133.56 94.492L129.852 85.84H130.764L133.56 92.416L136.344 85.84H137.256L133.56 94.492ZM139.125 86.896C139.221 87.004 139.281 87.136 139.281 87.28C139.281 87.424 139.221 87.556 139.125 87.652C139.017 87.76 138.885 87.808 138.741 87.808C138.597 87.808 138.465 87.76 138.369 87.652C138.261 87.556 138.213 87.424 138.213 87.28C138.213 87.136 138.261 87.004 138.369 86.896C138.465 86.8 138.597 86.74 138.741 86.74C138.885 86.74 139.017 86.8 139.125 86.896ZM139.173 94H138.333V88.72H139.173V94ZM147.711 93.976L147.699 90.676C147.699 90.136 147.531 89.752 147.183 89.536C147.063 89.464 146.883 89.416 146.631 89.416C146.391 89.416 146.151 89.488 145.935 89.632C145.719 89.776 145.551 89.968 145.419 90.184C145.371 90.28 145.323 90.376 145.287 90.484C145.287 90.544 145.287 90.616 145.287 90.676V93.976H144.447V90.676C144.447 90.136 144.279 89.752 143.931 89.536C143.811 89.464 143.631 89.416 143.379 89.416C143.139 89.416 142.899 89.488 142.683 89.632C142.467 89.776 142.299 89.968 142.167 90.184C141.999 90.484 141.891 90.856 141.843 91.276V93.976H141.003V88.696H141.843V89.548C142.011 89.272 142.203 89.056 142.443 88.876C142.719 88.684 143.043 88.576 143.403 88.576C143.775 88.576 144.075 88.636 144.303 88.756C144.519 88.876 144.711 89.02 144.855 89.212C144.939 89.332 145.011 89.452 145.071 89.584C145.239 89.296 145.443 89.068 145.695 88.876C145.971 88.684 146.295 88.576 146.655 88.576C147.027 88.576 147.327 88.636 147.555 88.756C147.771 88.876 147.963 89.02 148.107 89.212C148.395 89.596 148.551 90.088 148.551 90.676V93.976H147.711Z" fill="white"/>
<path d="M233.131 77.896C233.131 76.984 232.795 76.192 232.147 75.532C231.487 74.884 230.695 74.548 229.771 74.548C228.847 74.548 228.055 74.884 227.395 75.532C226.747 76.192 226.411 76.984 226.411 77.896C226.411 78.832 226.747 79.624 227.395 80.272C228.055 80.932 228.847 81.256 229.771 81.256C230.695 81.256 231.487 80.932 232.147 80.272C232.795 79.624 233.131 78.832 233.131 77.896ZM233.971 77.896C233.971 78.472 233.851 79.024 233.635 79.528C233.419 80.044 233.119 80.488 232.735 80.872C232.351 81.256 231.907 81.556 231.391 81.772C230.887 81.988 230.335 82.108 229.759 82.108C229.183 82.108 228.643 81.988 228.139 81.772C227.635 81.556 227.191 81.256 226.807 80.872C226.423 80.488 226.123 80.044 225.907 79.528C225.691 79.024 225.571 78.472 225.571 77.896C225.571 77.32 225.691 76.78 225.907 76.264C226.123 75.76 226.423 75.316 226.807 74.932C227.191 74.56 227.635 74.26 228.139 74.044C228.643 73.828 229.183 73.72 229.759 73.72C230.335 73.72 230.887 73.828 231.391 74.044C231.907 74.26 232.351 74.56 232.735 74.932C233.119 75.316 233.419 75.76 233.635 76.264C233.851 76.78 233.971 77.32 233.971 77.896ZM236.252 85L235.412 85.012V76.732H236.252V77.632C236.288 77.56 236.348 77.5 236.396 77.452C236.9 76.888 237.512 76.612 238.244 76.612C238.964 76.612 239.576 76.888 240.08 77.452C240.56 77.992 240.812 78.628 240.812 79.372C240.812 80.104 240.56 80.74 240.08 81.28C239.576 81.844 238.964 82.12 238.244 82.12C237.512 82.12 236.9 81.844 236.396 81.28C236.348 81.232 236.288 81.172 236.252 81.1V85ZM239.972 79.372C239.972 78.856 239.792 78.4 239.432 78.028C239.072 77.644 238.628 77.452 238.112 77.452C237.584 77.452 237.14 77.644 236.78 78.028C236.42 78.4 236.252 78.856 236.252 79.372C236.252 79.876 236.42 80.332 236.78 80.716C237.14 81.1 237.584 81.292 238.112 81.292C238.628 81.292 239.072 81.1 239.432 80.716C239.792 80.332 239.972 79.876 239.972 79.372ZM247.415 79.24V79.696H242.771C242.843 80.14 243.071 80.512 243.431 80.812C243.791 81.1 244.199 81.256 244.655 81.256C244.955 81.256 245.243 81.184 245.519 81.04C245.795 80.896 246.023 80.704 246.215 80.452H247.175C246.947 80.956 246.611 81.364 246.155 81.652C245.699 81.94 245.243 82.084 244.775 82.084C244.307 82.084 243.911 82.012 243.575 81.868C243.239 81.724 242.951 81.532 242.699 81.28C242.159 80.752 241.895 80.104 241.895 79.336C241.895 78.58 242.159 77.932 242.699 77.392C243.239 76.852 243.887 76.576 244.655 76.576C245.387 76.576 246.035 76.84 246.575 77.356C247.127 77.896 247.415 78.52 247.415 79.24ZM246.527 78.976C246.419 78.52 246.203 78.148 245.843 77.848C245.495 77.56 245.099 77.416 244.655 77.416C243.959 77.416 243.419 77.728 243.035 78.352C242.915 78.544 242.831 78.748 242.783 78.976H246.527ZM252.443 82V78.712C252.443 78.364 252.359 78.064 252.203 77.824C252.047 77.584 251.795 77.464 251.435 77.464C251.075 77.464 250.775 77.524 250.559 77.668C250.331 77.8 250.151 77.98 250.007 78.196C249.755 78.592 249.635 79.12 249.635 79.792V82H248.795V76.72H249.635V77.632C249.803 77.332 250.031 77.092 250.307 76.912C250.595 76.72 250.919 76.612 251.303 76.612C251.675 76.612 251.975 76.672 252.215 76.78C252.443 76.888 252.635 77.032 252.803 77.224C253.115 77.596 253.283 78.088 253.283 78.7V82H252.443ZM221.039 92.16C219.383 91.776 218.543 91.056 218.543 90.012C218.543 89.244 218.819 88.68 219.347 88.296C219.887 87.912 220.523 87.72 221.243 87.72C222.827 87.72 223.775 88.32 224.075 89.496H223.163C222.995 88.8 222.359 88.44 221.243 88.44C220.451 88.44 219.899 88.68 219.587 89.148C219.467 89.316 219.419 89.544 219.419 89.808C219.407 90.312 219.683 90.696 220.235 90.972C220.487 91.104 221.027 91.284 221.867 91.5C222.695 91.716 223.295 91.956 223.667 92.22C224.195 92.58 224.459 93.096 224.459 93.768C224.459 94.584 224.123 95.208 223.475 95.628C222.935 95.988 222.263 96.156 221.459 96.156C219.659 96.156 218.615 95.472 218.327 94.092H219.311C219.467 94.956 220.187 95.388 221.459 95.388C222.371 95.388 223.019 95.136 223.379 94.632C223.523 94.44 223.595 94.164 223.595 93.828C223.595 93.492 223.463 93.216 223.199 93C222.815 92.688 222.095 92.412 221.039 92.16ZM229.993 93.336C229.993 92.808 229.801 92.364 229.429 91.98C229.045 91.608 228.601 91.416 228.073 91.416C227.545 91.416 227.089 91.608 226.717 91.98C226.333 92.364 226.153 92.808 226.153 93.336C226.153 93.864 226.333 94.308 226.717 94.68C227.089 95.064 227.545 95.244 228.073 95.244C228.601 95.244 229.045 95.064 229.429 94.68C229.801 94.308 229.993 93.864 229.993 93.336ZM230.833 93.336C230.833 94.104 230.557 94.752 230.017 95.28C229.477 95.82 228.817 96.084 228.073 96.084C227.317 96.084 226.657 95.82 226.117 95.28C225.577 94.752 225.313 94.104 225.313 93.336C225.313 92.58 225.577 91.932 226.117 91.392C226.657 90.852 227.305 90.576 228.073 90.576C228.829 90.576 229.477 90.852 230.017 91.392C230.557 91.932 230.833 92.58 230.833 93.336ZM235.919 95.1C235.523 95.772 234.935 96.12 234.155 96.12C233.555 96.12 233.099 95.916 232.763 95.532C232.427 95.136 232.271 94.644 232.271 94.032V90.732H233.111V94.032C233.111 94.368 233.183 94.668 233.339 94.908C233.495 95.148 233.759 95.28 234.119 95.28C234.767 95.28 235.235 95.064 235.499 94.656C235.775 94.236 235.919 93.672 235.919 92.928V90.72H236.759V96H235.919V95.1ZM241.089 91.812C240.885 91.644 240.681 91.548 240.465 91.548C240.249 91.548 240.057 91.62 239.901 91.74C239.745 91.86 239.613 92.016 239.517 92.196C239.313 92.544 239.217 92.928 239.217 93.36V96H238.377V90.72H239.217V91.812L239.253 91.596C239.529 90.948 239.961 90.612 240.561 90.612C240.741 90.612 240.921 90.648 241.089 90.72V91.812ZM247.035 92.616L246.123 92.628C245.979 92.292 245.751 92.016 245.451 91.812C245.139 91.596 244.839 91.5 244.527 91.5C244.215 91.5 243.939 91.548 243.723 91.644C243.495 91.74 243.303 91.884 243.135 92.052C242.775 92.424 242.595 92.868 242.595 93.372C242.595 93.876 242.775 94.32 243.135 94.692C243.495 95.064 243.927 95.256 244.443 95.256C244.779 95.256 245.079 95.16 245.367 94.992C245.655 94.812 245.871 94.572 246.039 94.272H246.987C246.687 95.124 246.111 95.688 245.271 95.988C245.007 96.084 244.707 96.12 244.371 96.12C244.035 96.12 243.699 96.048 243.375 95.904C243.039 95.76 242.763 95.556 242.523 95.304C241.995 94.752 241.743 94.116 241.743 93.36C241.743 92.616 241.995 91.968 242.523 91.428C243.039 90.888 243.687 90.612 244.443 90.612C245.043 90.612 245.583 90.804 246.075 91.176C246.543 91.548 246.867 92.028 247.035 92.616ZM253.521 93.24V93.696H248.877C248.949 94.14 249.177 94.512 249.537 94.812C249.897 95.1 250.305 95.256 250.761 95.256C251.061 95.256 251.349 95.184 251.625 95.04C251.901 94.896 252.129 94.704 252.321 94.452H253.281C253.053 94.956 252.717 95.364 252.261 95.652C251.805 95.94 251.349 96.084 250.881 96.084C250.413 96.084 250.017 96.012 249.681 95.868C249.345 95.724 249.057 95.532 248.805 95.28C248.265 94.752 248.001 94.104 248.001 93.336C248.001 92.58 248.265 91.932 248.805 91.392C249.345 90.852 249.993 90.576 250.761 90.576C251.493 90.576 252.141 90.84 252.681 91.356C253.233 91.896 253.521 92.52 253.521 93.24ZM252.633 92.976C252.525 92.52 252.309 92.148 251.949 91.848C251.601 91.56 251.205 91.416 250.761 91.416C250.065 91.416 249.525 91.728 249.141 92.352C249.021 92.544 248.937 92.748 248.889 92.976H252.633Z" fill="white"/>
<path d="M18.464 81.1534C19.136 81.1534 19.76 81.3214 20.384 81.6334C20.984 81.9214 21.488 82.3294 21.872 82.8574C22.64 83.8414 23.024 85.1614 23.024 86.8174L23.024 91.8094L6.704 91.8094L6.704 87.3934C6.704 85.0174 7.424 83.4574 8.912 82.7374C9.44 82.4974 9.968 82.3534 10.52 82.3534C11.048 82.3534 11.48 82.4014 11.792 82.4974C12.104 82.5934 12.416 82.7134 12.704 82.8814C13.328 83.2414 13.76 83.7214 14 84.2734C14.264 83.3374 14.792 82.5694 15.56 81.9934C16.328 81.4414 17.312 81.1534 18.464 81.1534ZM10.784 84.0574C9.128 84.0574 8.312 85.1614 8.312 87.4174L8.312 90.1534L13.4 90.1534L13.4 86.9374C13.4 86.0734 13.184 85.3774 12.752 84.8494C12.32 84.3214 11.648 84.0574 10.784 84.0574ZM18.152 82.8574C17.672 82.8574 17.24 82.9294 16.88 83.1214C16.496 83.3134 16.184 83.5534 15.92 83.8414C15.344 84.4894 15.08 85.2334 15.08 86.0974L15.08 90.1534L21.416 90.1534L21.416 86.3614C21.416 85.3294 21.104 84.4894 20.528 83.8414C19.904 83.1694 19.112 82.8574 18.152 82.8574ZM17.72 70.4719C16.712 70.4719 15.8 70.8319 15.032 71.5519C14.264 72.2719 13.88 73.1599 13.88 74.1919C13.88 75.2479 14.264 76.1359 15.032 76.8559C15.8 77.5759 16.712 77.9119 17.72 77.9119C18.752 77.9119 19.664 77.5759 20.408 76.8559C21.176 76.1359 21.56 75.2479 21.56 74.1919C21.56 73.1599 21.176 72.2719 20.408 71.5519C19.664 70.8319 18.752 70.4719 17.72 70.4719ZM23 68.7919L23 70.4719L21.2 70.4719C21.344 70.5679 21.464 70.6879 21.56 70.7839C22.688 71.7919 23.24 73.0159 23.24 74.4559C23.24 75.9199 22.688 77.1439 21.56 78.1519C20.48 79.1119 19.208 79.5919 17.72 79.5919C16.256 79.5919 14.984 79.1119 13.88 78.1519C12.776 77.1439 12.2 75.9199 12.2 74.4559C12.2 73.0159 12.776 71.7919 13.88 70.7839C14 70.6879 14.12 70.5679 14.264 70.4719L12.44 70.4719L12.44 68.7919L23 68.7919ZM16.232 55.3204L16.256 57.1444C15.584 57.4324 15.032 57.8884 14.624 58.4884C14.192 59.1124 14 59.7124 14 60.3364C14 60.9604 14.096 61.5124 14.288 61.9444C14.48 62.4004 14.768 62.7844 15.104 63.1204C15.848 63.8404 16.736 64.2004 17.744 64.2004C18.752 64.2004 19.64 63.8404 20.384 63.1204C21.128 62.4004 21.512 61.5364 21.512 60.5044C21.512 59.8324 21.32 59.2324 20.984 58.6564C20.624 58.0804 20.144 57.6484 19.544 57.3124L19.544 55.4164C21.248 56.0164 22.376 57.1684 22.976 58.8484C23.168 59.3764 23.24 59.9764 23.24 60.6484C23.24 61.3204 23.096 61.9924 22.808 62.6404C22.52 63.3124 22.112 63.8644 21.608 64.3444C20.504 65.4004 19.232 65.9044 17.72 65.9044C16.232 65.9044 14.936 65.4004 13.856 64.3444C12.776 63.3124 12.224 62.0164 12.224 60.5044C12.224 59.3044 12.608 58.2244 13.352 57.2404C14.096 56.3044 15.056 55.6564 16.232 55.3204ZM23 50.9888L23 52.6688L5 52.6687L5 50.9887L17.192 50.9887L12.416 47.1247L12.416 44.8927L17.552 49.2367L23 44.6047L23 46.8367L17.936 50.9887L23 50.9888ZM17.48 32.2472L18.392 32.2472L18.392 41.5352C19.28 41.3912 20.024 40.9352 20.624 40.2152C21.2 39.4952 21.512 38.6792 21.512 37.7672C21.512 37.1672 21.368 36.5912 21.08 36.0392C20.792 35.4872 20.408 35.0312 19.904 34.6472L19.904 32.7272C20.912 33.1832 21.728 33.8552 22.304 34.7672C22.88 35.6792 23.168 36.5912 23.168 37.5272C23.168 38.4632 23.024 39.2552 22.736 39.9272C22.448 40.5992 22.064 41.1752 21.56 41.6792C20.504 42.7592 19.208 43.2872 17.672 43.2872C16.16 43.2872 14.864 42.7592 13.784 41.6792C12.704 40.5992 12.152 39.3032 12.152 37.7672C12.152 36.3032 12.68 35.0072 13.712 33.9272C14.792 32.8232 16.04 32.2472 17.48 32.2472ZM16.952 34.0232C16.04 34.2392 15.296 34.6712 14.696 35.3912C14.12 36.0872 13.832 36.8792 13.832 37.7672C13.832 39.1592 14.456 40.2392 15.704 41.0072C16.088 41.2472 16.496 41.4152 16.952 41.5112L16.952 34.0232ZM23 22.1931L16.424 22.1931C15.728 22.1931 15.128 22.3611 14.648 22.6731C14.168 22.9851 13.928 23.4891 13.928 24.2091C13.928 24.9291 14.048 25.5291 14.336 25.9611C14.6 26.4171 14.96 26.7771 15.392 27.0651C16.184 27.5691 17.24 27.8091 18.584 27.8091L23 27.8091L23 29.4891L12.44 29.4891L12.44 27.8091L14.264 27.8091C13.664 27.4731 13.184 27.0171 12.824 26.4651C12.44 25.8891 12.224 25.2411 12.224 24.4731C12.224 23.7291 12.344 23.1291 12.56 22.6491C12.776 22.1931 13.064 21.8091 13.448 21.4731C14.192 20.8491 15.176 20.5131 16.4 20.5131L23 20.5131L23 22.1931ZM17.72 8.87812C16.712 8.87812 15.8 9.23812 15.032 9.95812C14.264 10.6781 13.88 11.5661 13.88 12.5981C13.88 13.6541 14.264 14.5421 15.032 15.2621C15.8 15.9821 16.712 16.3181 17.72 16.3181C18.752 16.3181 19.664 15.9821 20.408 15.2621C21.176 14.5421 21.56 13.6541 21.56 12.5981C21.56 11.5661 21.176 10.6781 20.408 9.95812C19.664 9.23812 18.752 8.87812 17.72 8.87812ZM23 7.19812L23 8.87812L21.2 8.87812C21.344 8.97412 21.464 9.09413 21.56 9.19012C22.688 10.1981 23.24 11.4221 23.24 12.8621C23.24 14.3261 22.688 15.5501 21.56 16.5581C20.48 17.5181 19.208 17.9981 17.72 17.9981C16.256 17.9981 14.984 17.5181 13.88 16.5581C12.776 15.5501 12.2 14.3261 12.2 12.8621C12.2 11.4221 12.776 10.1981 13.88 9.19012C14 9.09412 14.12 8.97412 14.264 8.87812L5 8.87812L5 7.19812L23 7.19812Z" fill="white"/>
<path d="M154.839 93.32H160.671V95H154.839H153.999H153.159V78.68H154.839V93.32ZM167.468 87.32C164.156 86.552 162.476 85.112 162.476 83.024C162.476 81.488 163.028 80.36 164.084 79.592C165.164 78.824 166.436 78.44 167.876 78.44C171.044 78.44 172.94 79.64 173.54 81.992H171.716C171.38 80.6 170.108 79.88 167.876 79.88C166.292 79.88 165.188 80.36 164.564 81.296C164.324 81.632 164.228 82.088 164.228 82.616C164.204 83.624 164.756 84.392 165.86 84.944C166.364 85.208 167.444 85.568 169.124 86C170.78 86.432 171.98 86.912 172.724 87.44C173.78 88.16 174.308 89.192 174.308 90.536C174.308 92.168 173.636 93.416 172.34 94.256C171.26 94.976 169.916 95.312 168.308 95.312C164.708 95.312 162.62 93.944 162.044 91.184H164.012C164.324 92.912 165.764 93.776 168.308 93.776C170.132 93.776 171.428 93.272 172.148 92.264C172.436 91.88 172.58 91.328 172.58 90.656C172.58 89.984 172.316 89.432 171.788 89C171.02 88.376 169.58 87.824 167.468 87.32ZM178.418 86.912H182.21C183.146 86.912 183.914 86.6 184.538 85.976C185.162 85.328 185.474 84.536 185.474 83.552C185.474 82.592 185.162 81.824 184.586 81.2C183.986 80.6 183.194 80.288 182.21 80.288H178.418V86.912ZM187.154 83.6C187.154 85.04 186.626 86.216 185.618 87.176C184.634 88.088 183.41 88.544 181.97 88.544H178.418V95H176.738V78.68H181.97C183.41 78.68 184.61 79.136 185.618 80.048C186.626 80.984 187.154 82.16 187.154 83.6Z" fill="white"/>
<path d="M148.318 36.5H150.788L149.558 33.37L148.318 36.5ZM152.538 39H151.778L151.048 37.15H148.058L147.328 39H146.568L149.558 31.73L152.538 39ZM154.446 36.906C154.344 36.822 154.242 36.774 154.134 36.774C154.026 36.774 153.93 36.81 153.852 36.87C153.774 36.93 153.708 37.008 153.66 37.098C153.558 37.272 153.51 37.464 153.51 37.68V39H153.09V36.36H153.51V36.906L153.528 36.798C153.666 36.474 153.882 36.306 154.182 36.306C154.272 36.306 154.362 36.324 154.446 36.36V36.906ZM154.623 36.75V36.36H155.283V35.334H155.703V36.36H156.357V36.75H155.703V39H155.283V36.75H154.623ZM157.354 35.448C157.402 35.502 157.432 35.568 157.432 35.64C157.432 35.712 157.402 35.778 157.354 35.826C157.3 35.88 157.234 35.904 157.162 35.904C157.09 35.904 157.024 35.88 156.976 35.826C156.922 35.778 156.898 35.712 156.898 35.64C156.898 35.568 156.922 35.502 156.976 35.448C157.024 35.4 157.09 35.37 157.162 35.37C157.234 35.37 157.3 35.4 157.354 35.448ZM157.378 39H156.958V36.36H157.378V39ZM159.715 34.89H159.349C159.211 34.89 159.121 34.926 159.079 34.986C159.031 35.052 159.013 35.13 159.013 35.22V36.36H159.715V36.75H159.013V39H158.593V36.75H158.059V36.36H158.593V35.34C158.593 35.076 158.653 34.866 158.779 34.722C158.905 34.578 159.115 34.5 159.415 34.5H159.715V34.89ZM160.77 35.448C160.818 35.502 160.848 35.568 160.848 35.64C160.848 35.712 160.818 35.778 160.77 35.826C160.716 35.88 160.65 35.904 160.578 35.904C160.506 35.904 160.44 35.88 160.392 35.826C160.338 35.778 160.314 35.712 160.314 35.64C160.314 35.568 160.338 35.502 160.392 35.448C160.44 35.4 160.506 35.37 160.578 35.37C160.65 35.37 160.716 35.4 160.77 35.448ZM160.794 39H160.374V36.36H160.794V39ZM164.181 37.308L163.725 37.314C163.653 37.146 163.539 37.008 163.389 36.906C163.233 36.798 163.083 36.75 162.927 36.75C162.771 36.75 162.633 36.774 162.525 36.822C162.411 36.87 162.315 36.942 162.231 37.026C162.051 37.212 161.961 37.434 161.961 37.686C161.961 37.938 162.051 38.16 162.231 38.346C162.411 38.532 162.627 38.628 162.885 38.628C163.053 38.628 163.203 38.58 163.347 38.496C163.491 38.406 163.599 38.286 163.683 38.136H164.157C164.007 38.562 163.719 38.844 163.299 38.994C163.167 39.042 163.017 39.06 162.849 39.06C162.681 39.06 162.513 39.024 162.351 38.952C162.183 38.88 162.045 38.778 161.925 38.652C161.661 38.376 161.535 38.058 161.535 37.68C161.535 37.308 161.661 36.984 161.925 36.714C162.183 36.444 162.507 36.306 162.885 36.306C163.185 36.306 163.455 36.402 163.701 36.588C163.935 36.774 164.097 37.014 164.181 37.308ZM165.27 35.448C165.318 35.502 165.348 35.568 165.348 35.64C165.348 35.712 165.318 35.778 165.27 35.826C165.216 35.88 165.15 35.904 165.078 35.904C165.006 35.904 164.94 35.88 164.892 35.826C164.838 35.778 164.814 35.712 164.814 35.64C164.814 35.568 164.838 35.502 164.892 35.448C164.94 35.4 165.006 35.37 165.078 35.37C165.15 35.37 165.216 35.4 165.27 35.448ZM165.294 39H164.874V36.36H165.294V39ZM168.315 37.68C168.315 37.428 168.225 37.2 168.045 37.008C167.865 36.816 167.643 36.72 167.385 36.72C167.121 36.72 166.899 36.816 166.719 37.008C166.539 37.2 166.455 37.428 166.455 37.68C166.455 37.938 166.539 38.166 166.719 38.352C166.899 38.544 167.121 38.64 167.385 38.64C167.643 38.64 167.865 38.544 168.045 38.352C168.225 38.166 168.315 37.938 168.315 37.68ZM168.735 39H168.315V38.55C168.291 38.586 168.261 38.616 168.237 38.64C167.985 38.922 167.679 39.06 167.319 39.06C166.953 39.06 166.647 38.922 166.395 38.64C166.155 38.37 166.035 38.052 166.035 37.68C166.035 37.314 166.155 36.996 166.395 36.72C166.647 36.444 166.953 36.3 167.319 36.3C167.679 36.3 167.985 36.444 168.237 36.72C168.261 36.75 168.291 36.78 168.315 36.816V36.36H168.735V39ZM170.057 39H169.637V34.5H170.057V39ZM173.303 39H172.603V32.2H173.303V39ZM176.324 39V37.356C176.324 37.182 176.282 37.032 176.204 36.912C176.126 36.792 176 36.732 175.82 36.732C175.64 36.732 175.49 36.762 175.382 36.834C175.268 36.9 175.178 36.99 175.106 37.098C174.98 37.296 174.92 37.56 174.92 37.896V39H174.5V36.36H174.92V36.816C175.004 36.666 175.118 36.546 175.256 36.456C175.4 36.36 175.562 36.306 175.754 36.306C175.94 36.306 176.09 36.336 176.21 36.39C176.324 36.444 176.42 36.516 176.504 36.612C176.66 36.798 176.744 37.044 176.744 37.35V39H176.324ZM177.223 36.75V36.36H177.883V35.334H178.303V36.36H178.957V36.75H178.303V39H177.883V36.75H177.223ZM182.107 37.62V37.848H179.785C179.821 38.07 179.935 38.256 180.115 38.406C180.295 38.55 180.499 38.628 180.727 38.628C180.877 38.628 181.021 38.592 181.159 38.52C181.297 38.448 181.411 38.352 181.507 38.226H181.987C181.873 38.478 181.705 38.682 181.477 38.826C181.249 38.97 181.021 39.042 180.787 39.042C180.553 39.042 180.355 39.006 180.187 38.934C180.019 38.862 179.875 38.766 179.749 38.64C179.479 38.376 179.347 38.052 179.347 37.668C179.347 37.29 179.479 36.966 179.749 36.696C180.019 36.426 180.343 36.288 180.727 36.288C181.093 36.288 181.417 36.42 181.687 36.678C181.963 36.948 182.107 37.26 182.107 37.62ZM181.663 37.488C181.609 37.26 181.501 37.074 181.321 36.924C181.147 36.78 180.949 36.708 180.727 36.708C180.379 36.708 180.109 36.864 179.917 37.176C179.857 37.272 179.815 37.374 179.791 37.488H181.663ZM183.217 39H182.797V34.5H183.217V39ZM184.535 39H184.115V34.5H184.535V39ZM185.859 35.448C185.907 35.502 185.937 35.568 185.937 35.64C185.937 35.712 185.907 35.778 185.859 35.826C185.805 35.88 185.739 35.904 185.667 35.904C185.595 35.904 185.529 35.88 185.481 35.826C185.427 35.778 185.403 35.712 185.403 35.64C185.403 35.568 185.427 35.502 185.481 35.448C185.529 35.4 185.595 35.37 185.667 35.37C185.739 35.37 185.805 35.4 185.859 35.448ZM185.883 39H185.463V36.36H185.883V39ZM188.94 37.68C188.94 37.428 188.85 37.2 188.67 37.008C188.49 36.816 188.268 36.72 188.01 36.72C187.752 36.72 187.53 36.816 187.344 37.008C187.164 37.2 187.074 37.422 187.074 37.68C187.074 37.944 187.164 38.166 187.344 38.352C187.53 38.544 187.752 38.64 188.01 38.64C188.268 38.64 188.49 38.544 188.67 38.352C188.85 38.166 188.94 37.938 188.94 37.68ZM187.068 39.36C187.104 39.528 187.188 39.672 187.32 39.804C187.506 39.99 187.728 40.08 187.992 40.08C188.25 40.08 188.472 39.99 188.658 39.804C188.844 39.618 188.94 39.396 188.94 39.132V38.562C188.916 38.586 188.892 38.616 188.868 38.64C188.616 38.922 188.31 39.06 187.95 39.06C187.578 39.06 187.272 38.922 187.02 38.64C186.78 38.37 186.66 38.052 186.66 37.68C186.66 37.314 186.78 36.996 187.02 36.72C187.272 36.444 187.578 36.3 187.95 36.3C188.298 36.3 188.604 36.444 188.868 36.72C188.892 36.75 188.916 36.78 188.94 36.804V36.36H189.36V39.132C189.36 39.51 189.222 39.834 188.958 40.098C188.688 40.368 188.364 40.5 187.992 40.5C187.614 40.5 187.29 40.368 187.026 40.098C186.81 39.888 186.684 39.642 186.636 39.36H187.068ZM192.842 37.62V37.848H190.52C190.556 38.07 190.67 38.256 190.85 38.406C191.03 38.55 191.234 38.628 191.462 38.628C191.612 38.628 191.756 38.592 191.894 38.52C192.032 38.448 192.146 38.352 192.242 38.226H192.722C192.608 38.478 192.44 38.682 192.212 38.826C191.984 38.97 191.756 39.042 191.522 39.042C191.288 39.042 191.09 39.006 190.922 38.934C190.754 38.862 190.61 38.766 190.484 38.64C190.214 38.376 190.082 38.052 190.082 37.668C190.082 37.29 190.214 36.966 190.484 36.696C190.754 36.426 191.078 36.288 191.462 36.288C191.828 36.288 192.152 36.42 192.422 36.678C192.698 36.948 192.842 37.26 192.842 37.62ZM192.398 37.488C192.344 37.26 192.236 37.074 192.056 36.924C191.882 36.78 191.684 36.708 191.462 36.708C191.114 36.708 190.844 36.864 190.652 37.176C190.592 37.272 190.55 37.374 190.526 37.488H192.398ZM195.355 39V37.356C195.355 37.182 195.313 37.032 195.235 36.912C195.157 36.792 195.031 36.732 194.851 36.732C194.671 36.732 194.521 36.762 194.413 36.834C194.299 36.9 194.209 36.99 194.137 37.098C194.011 37.296 193.951 37.56 193.951 37.896V39H193.531V36.36H193.951V36.816C194.035 36.666 194.149 36.546 194.287 36.456C194.431 36.36 194.593 36.306 194.785 36.306C194.971 36.306 195.121 36.336 195.241 36.39C195.355 36.444 195.451 36.516 195.535 36.612C195.691 36.798 195.775 37.044 195.775 37.35V39H195.355ZM199.05 37.308L198.594 37.314C198.522 37.146 198.408 37.008 198.258 36.906C198.102 36.798 197.952 36.75 197.796 36.75C197.64 36.75 197.502 36.774 197.394 36.822C197.28 36.87 197.184 36.942 197.1 37.026C196.92 37.212 196.83 37.434 196.83 37.686C196.83 37.938 196.92 38.16 197.1 38.346C197.28 38.532 197.496 38.628 197.754 38.628C197.922 38.628 198.072 38.58 198.216 38.496C198.36 38.406 198.468 38.286 198.552 38.136H199.026C198.876 38.562 198.588 38.844 198.168 38.994C198.036 39.042 197.886 39.06 197.718 39.06C197.55 39.06 197.382 39.024 197.22 38.952C197.052 38.88 196.914 38.778 196.794 38.652C196.53 38.376 196.404 38.058 196.404 37.68C196.404 37.308 196.53 36.984 196.794 36.714C197.052 36.444 197.376 36.306 197.754 36.306C198.054 36.306 198.324 36.402 198.57 36.588C198.804 36.774 198.966 37.014 199.05 37.308ZM202.293 37.62V37.848H199.971C200.007 38.07 200.121 38.256 200.301 38.406C200.481 38.55 200.685 38.628 200.913 38.628C201.063 38.628 201.207 38.592 201.345 38.52C201.483 38.448 201.597 38.352 201.693 38.226H202.173C202.059 38.478 201.891 38.682 201.663 38.826C201.435 38.97 201.207 39.042 200.973 39.042C200.739 39.042 200.541 39.006 200.373 38.934C200.205 38.862 200.061 38.766 199.935 38.64C199.665 38.376 199.533 38.052 199.533 37.668C199.533 37.29 199.665 36.966 199.935 36.696C200.205 36.426 200.529 36.288 200.913 36.288C201.279 36.288 201.603 36.42 201.873 36.678C202.149 36.948 202.293 37.26 202.293 37.62ZM201.849 37.488C201.795 37.26 201.687 37.074 201.507 36.924C201.333 36.78 201.135 36.708 200.913 36.708C200.565 36.708 200.295 36.864 200.103 37.176C200.043 37.272 200.001 37.374 199.977 37.488H201.849Z" fill="white"/>
</svg>
